{"title":"The Warlords (2007) BRRip 720p Esubs 900MB [SReeJoN]","uid":11618519,"size":949493433,"categoryP":"video","categoryS":"hd___movies","magnet":"?xt=urn:btih:e775adc3b0bf875682777cd1bd2f6898282eaa30&amp;dn=The+Warlords+%282007%29+BRRip+720p+Esubs+900MB+%5BSReeJoN%5D&amp;tr=udp%3A%2F%2Ftracker.openbittorrent.com%3A80&amp;tr=udp%3A%2F%2Fopen.demonii.com%3A1337&amp;tr=udp%3A%2F%2Ftracker.coppersurfer.tk%3A6969&amp;tr=udp%3A%2F%2Fexodus.desync.com%3A6969","seeders":0,"leechers":1,"uploader":"siretgr","files":-1,"time":1417520340,"description":" \n &lt;a href=&quot;\nhttp://www.imdb.com/title/tt0913968/&quot; rel=&quot;nofollow&quot; target=&quot;_NEW&quot;&gt;\nhttp://www.imdb.com/title/tt0913968/&lt;/a&gt;\n\nThe Warlords (2007)\n&quot;Tau ming chong&quot; (original title)\n126 min  -  Action | Drama | History  -  12 December 2007 (China)\n\n\nIt's a heroic tale of three blood brothers and their struggle in the midst of war and political upheaval. It is based on &quot;The Assassination of Ma,&quot; a Qing Dynasty (1644-1911) story about ... See full summary Â»\n\nDirectors: Peter Chan, Wai Man Yip\nWriters: Tin Nam Chun (screenplay), Junli Guo \nStars: Jet Li, Andy Lau, Takeshi Kaneshiro \n\n\n\nMedia Info\n\nGeneral\nComplete name                    : E:The Warlords (2007) BRRip 720p Esubs 900MB [SReeJoN]The Warlords (2007) BRRip 720p Esubs 900MB [SReeJoN].avi\nFormat                           : AVI\nFormat/Info                      : Audio Video Interleave\nFile size                        : 905 MiB\nDuration                         : 2h 5mn\nOverall bit rate                 : 1 007 Kbps\nWriting application              : VirtualDubMod 1.5.10.3 | www.virtualdub-fr.org || (build 2550/release)\nWriting library                  : VirtualDubMod build 2550/release\n\nVideo\nID                               : 0\nFormat                           : MPEG-4 Visual\nFormat profile                   : Advanced Simple@L5\nFormat settings, BVOP            : 4\nFormat settings, QPel            : No\nFormat settings, GMC             : No warppoints\nFormat settings, Matrix          : Default (H.263)\nCodec ID                         : XVID\nCodec ID/Hint                    : XviD\nDuration                         : 2h 5mn\nBit rate                         : 870 Kbps\nWidth                            : 720 pixels\nHeight                           : 304 pixels\nDisplay aspect ratio             : 2.35:1\nFrame rate                       : 24.000 fps\nColor space                      : YUV\nChroma subsampling               : 4:2:0\nBit depth                        : 8 bits\nScan type                        : Progressive\nCompression mode                 : Lossy\nBits/(Pixel*Frame)               : 0.166\nStream size                      : 782 MiB (86%)\nWriting library                  : XviD 1.2.1 (UTC 2008-12-04)\n\nAudio\nID                               : 1\nFormat                           : MPEG Audio\nFormat version                   : Version 1\nFormat profile                   : Layer 3\nCodec ID                         : 55\nCodec ID/Hint                    : MP3\nDuration                         : 2h 5mn\nBit rate mode                    : Constant\nBit rate                         : 128 Kbps\nChannel(s)                       : 2 channels\nSampling rate                    : 48.0 KHz\nCompression mode                 : Lossy\nStream size                      : 115 MiB (13%)\nAlignment                        : Aligned on interleaves\nInterleave, duration             : 42 ms (1.00 video frame)\nInterleave, preload duration     : 504 ms\nWriting library                  : LAME3.99.1","torrent":{"xt":"urn:btih:e775adc3b0bf875682777cd1bd2f6898282eaa30","amp;dn":"The+Warlords+%282007%29+BRRip+720p+Esubs+900MB+%5BSReeJoN%5D","amp;tr":["udp%3A%2F%2Ftracker.openbittorrent.com%3A80","udp%3A%2F%2Fopen.demonii.com%3A1337","udp%3A%2F%2Ftracker.coppersurfer.tk%3A6969","udp%3A%2F%2Fexodus.desync.com%3A6969"],"infoHash":"e775adc3b0bf875682777cd1bd2f6898282eaa30","infoHashBuffer":{"type":"Buffer","data":[231,117,173,195,176,191,135,86,130,119,124,209,189,47,104,152,40,46,170,48]},"announce":[],"urlList":[]}}